<svg xmlns="http://www.w3.org/2000/svg" width="282" height="224" viewBox="0 0 282 224" version="1.1"><path d="M 172.445 38.746 C 223.608 38.954, 238.588 39.293, 239.272 40.257 C 239.919 41.171, 240.044 41.103, 239.743 40 C 239.384 38.686, 231.099 38.499, 172.917 38.489 L 106.500 38.478 172.445 38.746 M 102.813 39.683 C 103.534 39.972, 104.397 39.936, 104.729 39.604 C 105.061 39.272, 104.471 39.036, 103.417 39.079 C 102.252 39.127, 102.015 39.364, 102.813 39.683 M 238.079 46.583 C 238.127 47.748, 238.364 47.985, 238.683 47.188 C 238.972 46.466, 238.936 45.603, 238.604 45.271 C 238.272 44.939, 238.036 45.529, 238.079 46.583 M 82.872 48.750 C 81.629 50.336, 81.664 50.371, 83.250 49.128 C 84.916 47.821, 85.445 47, 84.622 47 C 84.415 47, 83.627 47.788, 82.872 48.750 M 228.405 67.250 L 226.500 69.500 228.750 67.595 C 230.864 65.805, 231.455 65, 230.655 65 C 230.465 65, 229.453 66.013, 228.405 67.250 M 66.079 75.583 C 66.127 76.748, 66.364 76.985, 66.683 76.188 C 66.972 75.466, 66.936 74.603, 66.604 74.271 C 66.272 73.939, 66.036 74.529, 66.079 75.583 M 135.320 75.749 C 149.521 75.906, 172.471 75.906, 186.320 75.749 C 200.169 75.592, 188.550 75.464, 160.500 75.464 C 132.450 75.465, 121.119 75.593, 135.320 75.749 M 103.872 78.750 C 102.629 80.336, 102.664 80.371, 104.250 79.128 C 105.916 77.821, 106.445 77, 105.622 77 C 105.415 77, 104.627 77.787, 103.872 78.750 M 65.079 80.583 C 65.127 81.748, 65.364 81.985, 65.683 81.188 C 65.972 80.466, 65.936 79.603, 65.604 79.271 C 65.272 78.939, 65.036 79.529, 65.079 80.583 M 101.349 92 C 101.349 96.675, 101.522 98.587, 101.732 96.250 C 101.943 93.912, 101.943 90.087, 101.732 87.750 C 101.522 85.412, 101.349 87.325, 101.349 92 M 178.133 107.250 C 174.361 119.495, 166.694 127.649, 154.649 132.226 C 150.491 133.805, 146.711 134.164, 133.054 134.277 C 117.621 134.405, 117.364 134.436, 129.250 134.737 L 142 135.060 142 173.141 L 142 211.223 145.750 210.550 C 156.827 208.564, 166.578 203.114, 171.307 196.265 C 178.062 186.482, 178.456 184.574, 179 159 L 179.500 135.500 187.704 134.890 C 201.016 133.900, 209.623 128.540, 215.081 117.841 C 217.594 112.916, 219.974 105.354, 219.989 102.250 L 220 100 200.183 100 L 180.367 100 178.133 107.250 M 101.454 173 C 101.454 194.175, 101.587 202.838, 101.749 192.250 C 101.911 181.663, 101.911 164.338, 101.749 153.750 C 101.587 143.163, 101.454 151.825, 101.454 173 M 65.079 177.583 C 65.127 178.748, 65.364 178.985, 65.683 178.188 C 65.972 177.466, 65.936 176.603, 65.604 176.271 C 65.272 175.939, 65.036 176.529, 65.079 177.583 M 72 195.378 C 72 195.585, 72.787 196.373, 73.750 197.128 C 75.336 198.371, 75.371 198.336, 74.128 196.750 C 72.821 195.084, 72 194.555, 72 195.378 M 78.500 202 C 79.495 203.100, 80.535 204, 80.810 204 C 81.085 204, 80.495 203.100, 79.500 202 C 78.505 200.900, 77.465 200, 77.190 200 C 76.915 200, 77.505 200.900, 78.500 202" stroke="none" fill="#1584c7" fill-rule="evenodd"/><path d="M 100.500 40.411 C 92.834 42.314, 85.554 46.488, 79.760 52.303 C 73.230 58.857, 69.536 65.585, 66.978 75.585 C 65.150 82.734, 65 86.760, 65 128.713 C 65 180.285, 65.386 183.944, 71.836 193.461 C 77.827 202.299, 84.694 206.924, 95.750 209.565 L 101 210.820 101 173.050 L 101 135.281 114.750 134.610 C 122.313 134.241, 133.225 133.988, 139 134.049 C 147.430 134.138, 150.584 133.747, 155 132.066 C 162.191 129.328, 169.102 124.165, 172.828 118.750 C 175.375 115.047, 180 103.496, 180 100.835 C 180 100.376, 162.225 100, 140.500 100 L 101 100 101 92.468 C 101 83.965, 102.705 78.802, 106.165 76.830 C 107.997 75.786, 120.126 75.392, 162.500 75 L 216.500 74.500 221.500 71.843 C 227.686 68.557, 231.133 64.969, 234.321 58.500 C 236.690 53.693, 239 45.028, 239 40.951 C 239 39.035, 237.801 39.002, 172.250 39.085 C 122.711 39.148, 104.211 39.490, 100.500 40.411" stroke="none" fill="#21374d" fill-rule="evenodd"/></svg>