<?xml version="1.0" encoding="UTF-8"?>
<svg version="1.1" xmlns="http://www.w3.org/2000/svg" width="1536" height="1024">
<path d="M0 0 C506.88 0 1013.76 0 1536 0 C1536 337.92 1536 675.84 1536 1024 C1029.12 1024 522.24 1024 0 1024 C0 686.08 0 348.16 0 0 Z " fill="#FEFEFE" transform="translate(0,0)"/>
<path d="M0 0 C1.02686906 -0.00085442 2.05373813 -0.00170885 3.11172444 -0.00258917 C6.54488352 -0.00423335 9.9779935 0.00126004 13.41114807 0.00672913 C15.87520344 0.00701125 18.33925889 0.00685277 20.80331421 0.00628662 C26.1043301 0.00605907 31.40533077 0.00889142 36.7063427 0.01452446 C44.37064388 0.0226635 52.03493911 0.02525714 59.69924415 0.02651245 C72.13511654 0.02869919 84.57098237 0.03534904 97.0068512 0.04481506 C109.08465034 0.05399895 121.1624477 0.06107501 133.24024963 0.06532288 C134.35761438 0.06571696 134.35761438 0.06571696 135.49755215 0.06611901 C139.23467551 0.06742408 142.97179888 0.06868778 146.70892227 0.06993091 C177.69503682 0.08029176 208.6811432 0.09797432 239.66725159 0.12025452 C239.51159257 1.88834211 239.35449804 3.65630336 239.1967926 5.42420959 C239.10946365 6.40875626 239.0221347 7.39330292 238.93215942 8.40768433 C237.37722628 24.32969455 229.57687628 39.50824565 217.66725159 50.12025452 C203.95544342 61.12743997 189.21068931 62.86467806 172.3427887 62.71620178 C170.44885415 62.71811006 168.55492076 62.72227499 166.66099548 62.72850037 C162.61446778 62.73722934 158.5683716 62.73065852 154.5218792 62.71183968 C148.12137871 62.682557 141.72124353 62.69059027 135.32070923 62.70373535 C122.90206651 62.72431612 110.48360432 62.70883276 98.06497192 62.68826294 C82.22497883 62.66304681 66.38508422 62.65024986 50.54508787 62.67821926 C44.18326116 62.68816605 37.82187734 62.67806336 31.4600991 62.65231144 C27.50901314 62.64014575 23.55806575 62.64433975 19.60697556 62.65288925 C17.77599392 62.65342444 15.94499536 62.64708387 14.11406517 62.63334846 C11.61393186 62.61550222 9.115006 62.62222561 6.61486816 62.63491821 C5.89162399 62.6237472 5.16837981 62.61257618 4.42321914 62.60106665 C-0.61890208 62.66354566 -3.43662323 63.98056918 -7.33274841 67.12025452 C-17.10599819 78.21421372 -12.58040416 81.05461547 -13.33274841 102.12025452 C58.60725159 102.12025452 130.54725159 102.12025452 204.66725159 102.12025452 C203.93340939 111.66020309 203.14237907 118.55612679 199.66725159 127.12025452 C199.31791565 127.98521545 198.96857971 128.85017639 198.60865784 129.74134827 C192.8744559 142.45976848 181.64439719 152.69150046 168.80787659 157.98744202 C156.60454693 162.38914052 145.45521624 163.35798708 132.55787659 163.22572327 C131.10882502 163.21724009 129.65976863 163.2095438 128.21070862 163.20265198 C124.6961209 163.18424904 121.18171809 163.1552286 117.66725159 163.12025452 C117.67613403 163.86590668 117.68501648 164.61155884 117.69416809 165.37980652 C117.77491296 172.46857222 117.83551622 179.55717388 117.87450027 186.64627266 C117.89521749 190.28933236 117.92323682 193.93200648 117.9690094 197.57484436 C118.01304405 201.10216332 118.03650732 204.6291157 118.04676056 208.15668869 C118.05755462 210.13165651 118.08868413 212.1064805 118.12043762 214.08122253 C118.1248099 232.02958382 111.43184379 250.22496683 98.66725159 263.12025452 C91.65524285 269.2483966 84.36107517 273.80434103 75.66725159 277.12025452 C74.57412659 277.55337952 73.48100159 277.98650452 72.35475159 278.43275452 C66.55441524 279.51417316 60.56753701 279.12025452 54.66725159 279.12025452 C54.66725159 240.84025452 54.66725159 202.56025452 54.66725159 163.12025452 C32.22725159 163.12025452 9.78725159 163.12025452 -13.33274841 163.12025452 C-13.33274841 201.73025452 -13.33274841 240.34025452 -13.33274841 280.12025452 C-28.62972358 276.59018332 -28.62972358 276.59018332 -34.33274841 273.62025452 C-34.99862976 273.27768616 -35.66451111 272.9351178 -36.35057068 272.58216858 C-54.24896455 262.94933022 -65.96380741 247.04942875 -72.39524841 227.96791077 C-75.15631489 218.29090376 -75.4853796 209.169511 -75.49388123 199.145401 C-75.49851597 197.72867709 -75.5035415 196.31195441 -75.50892639 194.89523315 C-75.52199198 191.06011966 -75.52848426 187.22502363 -75.53293705 183.38989139 C-75.53587814 180.98748529 -75.53998493 178.58508386 -75.54444122 176.18268013 C-75.55810277 168.64777095 -75.56777514 161.11287255 -75.57164311 153.57795185 C-75.5761162 144.91454563 -75.59363484 136.25129778 -75.62264371 127.58793968 C-75.64435087 120.86916077 -75.65435224 114.15042611 -75.65568423 107.43161255 C-75.65672611 103.4293873 -75.66250064 99.42731118 -75.68050385 95.42512321 C-75.69714099 91.65344359 -75.69906541 87.88202268 -75.69036484 84.11031914 C-75.68924327 82.09010285 -75.70284035 80.06989454 -75.71711731 78.04972839 C-75.61648336 55.68651676 -67.4921367 35.8975619 -52.08665466 19.76869202 C-37.49549713 5.82443309 -19.96317659 -0.06105921 0 0 Z " fill="#001D38" transform="translate(691.3327484130859,245.87974548339844)"/>
<path d="M0 0 C0.33 0 0.66 0 1 0 C1 7.92 1 15.84 1 24 C72.94 24 144.88 24 219 24 C218.2661578 33.53994857 217.47512748 40.43587227 214 49 C213.47599609 50.29744141 213.47599609 50.29744141 212.94140625 51.62109375 C207.20720431 64.33951397 195.9771456 74.57124594 183.140625 79.8671875 C170.93729534 84.26888601 159.78796465 85.23773257 146.890625 85.10546875 C145.44157343 85.09698558 143.99251704 85.08928929 142.54345703 85.08239746 C139.02886931 85.06399452 135.5144665 85.03497408 132 85 C132.00888245 85.74565216 132.01776489 86.49130432 132.0269165 87.259552 C132.10766137 94.34831771 132.16826463 101.43691937 132.20724869 108.52601814 C132.2279659 112.16907784 132.25598523 115.81175196 132.30175781 119.45458984 C132.34579247 122.98190881 132.36925574 126.50886118 132.37950897 130.03643417 C132.39030303 132.01140199 132.42143254 133.98622598 132.45318604 135.96096802 C132.45755832 153.9093293 125.76459221 172.10471231 113 185 C105.98799127 191.12814209 98.69382358 195.68408652 90 199 C88.906875 199.433125 87.81375 199.86625 86.6875 200.3125 C80.88716365 201.39391864 74.90028542 201 69 201 C69 162.72 69 124.44 69 85 C46.56 85 24.12 85 1 85 C1 84.67 1 84.34 1 84 C38.29 83.67 75.58 83.34 114 83 C114 82.67 114 82.34 114 82 C114.5902446 82.00222061 115.1804892 82.00444122 115.78862 82.00672913 C121.93679193 82.02886785 128.08495253 82.0439425 134.2331543 82.05493164 C136.52710429 82.05995761 138.82105108 82.06677938 141.11499023 82.07543945 C144.41390778 82.08758096 147.71278293 82.09324572 151.01171875 82.09765625 C152.54792122 82.10539818 152.54792122 82.10539818 154.11515808 82.11329651 C155.07577652 82.11337204 156.03639496 82.11344757 157.02612305 82.11352539 C157.86773483 82.115746 158.70934662 82.11796661 159.57646179 82.12025452 C162.14234562 81.9929369 164.49456043 81.55685107 167 81 C168.11375 80.78601563 169.2275 80.57203125 170.375 80.3515625 C171.57125 80.11179687 172.7675 79.87203125 174 79.625 C175.19625 79.39039063 176.3925 79.15578125 177.625 78.9140625 C180.90794375 78.0249319 183.13837964 76.77857654 186 75 C186.99 75 187.98 75 189 75 C189.33 74.34 189.66 73.68 190 73 C190.825 72.690625 191.65 72.38125 192.5 72.0625 C193.325 71.711875 194.15 71.36125 195 71 C195.33 70.01 195.66 69.02 196 68 C196.7425 67.5875 197.485 67.175 198.25 66.75 C201.44864842 64.71449646 202.88179928 62.58010081 204.88671875 59.42578125 C205.25410156 58.95527344 205.62148438 58.48476563 206 58 C206.66 58 207.32 58 208 58 C208.37125 56.8553125 208.37125 56.8553125 208.75 55.6875 C209.78815363 52.6249468 210.88033364 49.59562604 212 46.5625 C214.49823878 39.67369977 216 34.46549381 216 27 C195.87 27 175.74 27 155 27 C155 26.34 155 25.68 155 25 C103.85 25 52.7 25 0 25 C0 16.75 0 8.5 0 0 Z " fill="#1DA3E7" transform="translate(677,324)"/>
<path d="M0 0 C47.40829146 0 47.40829146 0 56.2421875 7.1171875 C61.65116998 12.91080873 64.34654793 20.65581569 64.20703125 28.46875 C63.58122451 36.12012297 61.11162591 41.61429182 56.01171875 47.30859375 C53.53948563 49.38718975 50.92339491 50.65169234 48 52 C52.86581217 60.57633374 57.80045938 69.10576075 62.84912109 77.57592773 C66 82.89187702 66 82.89187702 66 84 C53.15821281 85.51460595 53.15821281 85.51460595 47 84 C43.39369198 80.92233801 41.74555515 77.40177082 39.89550781 73.07666016 C38.22304173 69.19825326 36.29375394 65.47753756 34.3125 61.75 C33.97468506 60.99920166 33.63687012 60.24840332 33.28881836 59.47485352 C32.09071857 56.96702779 32.09071857 56.96702779 29 54 C24.71 53.67 20.42 53.34 16 53 C16 63.23 16 73.46 16 84 C10.72 84 5.44 84 0 84 C0 56.28 0 28.56 0 0 Z " fill="#021329" transform="translate(648,591)"/>
<path d="M0 0 C5.61 0 11.22 0 17 0 C17 11.22 17 22.44 17 34 C28.88 34 40.76 34 53 34 C53 22.78 53 11.56 53 0 C58.61 0 64.22 0 70 0 C70 28.05 70 56.1 70 85 C64.39 85 58.78 85 53 85 C53 73.45 53 61.9 53 50 C40.79 50 28.58 50 16 50 C16 61.22 16 72.44 16 84 C10.72 84 5.44 84 0 84 C0 56.28 0 28.56 0 0 Z " fill="#00132A" transform="translate(1137,591)"/>
<path d="M0 0 C5.61 0 11.22 0 17 0 C17.0093457 1.72033447 17.01869141 3.44066895 17.02832031 5.21313477 C17.06393779 10.91700126 17.11779258 16.62050355 17.18390274 22.32409763 C17.22329954 25.77996699 17.25552561 29.23558454 17.27099609 32.69165039 C17.28913099 36.67106376 17.33911689 40.64977951 17.390625 44.62890625 C17.39185364 45.86145645 17.39308228 47.09400665 17.39434814 48.36390686 C17.50887633 55.10524747 17.90796817 59.54460058 22 65 C26.60366599 69.09100831 32.36730442 69.63034794 38.31640625 69.3828125 C43.74235544 68.60880519 47.37120876 66.76757922 51.0715332 62.75195312 C54.37712881 57.64996545 53.6036651 51.36153929 53.609375 45.5078125 C53.62591125 44.20673553 53.64244751 42.90565857 53.65948486 41.56515503 C53.70301748 38.12271213 53.72312561 34.68052338 53.73822021 31.237854 C53.75784269 27.71831319 53.79980665 24.19904481 53.83984375 20.6796875 C53.9149927 13.78653436 53.96330908 6.89346409 54 0 C59.61 0 65.22 0 71 0 C71.06810465 7.38952913 71.12300402 14.77888326 71.15543652 22.16866112 C71.171012 25.60100453 71.192099 29.03311984 71.22631836 32.46533203 C71.26551595 36.42217158 71.2797763 40.37892268 71.29296875 44.3359375 C71.30845261 45.55300385 71.32393646 46.77007019 71.33988953 48.02401733 C71.34204959 59.08630338 69.58615223 67.68870087 62 76 C53.68867647 84.12662745 44.20181014 86.322733 32.87231445 86.31030273 C22.59112176 86.08255086 15.5221104 82.59304277 8.16796875 75.5078125 C2.16834578 68.56770809 -0.13325842 61.16561388 -0.11352539 52.1081543 C-0.11344986 50.94732834 -0.11337433 49.78650238 -0.11329651 48.59049988 C-0.10813522 47.34762711 -0.10297394 46.10475433 -0.09765625 44.82421875 C-0.0962413 43.54392288 -0.09482635 42.26362701 -0.09336853 40.9445343 C-0.08956397 37.5530296 -0.07975143 34.16156823 -0.06866455 30.77008057 C-0.05840597 27.30440863 -0.05386141 23.83872964 -0.04882812 20.37304688 C-0.03780755 13.5820101 -0.02054722 6.79101437 0 0 Z " fill="#011228" transform="translate(559,591)"/>
<path d="M0 0 C5.61 0 11.22 0 17 0 C17.01458252 1.72557129 17.02916504 3.45114258 17.04418945 5.22900391 C17.09593776 10.94481006 17.16124958 16.66035473 17.23571491 22.37590981 C17.2803494 25.83961259 17.31962018 29.30319964 17.34643555 32.76708984 C17.37753763 36.75383392 17.43232449 40.74008676 17.48828125 44.7265625 C17.49467117 45.96427399 17.5010611 47.20198547 17.50764465 48.47720337 C17.55152675 56.6915342 17.55152675 56.6915342 21 64 C27.18548536 68.7679783 32.36277762 69.80332265 40 69 C44.84566516 67.55538092 48.33095086 65.44427104 51.13235474 61.11654663 C53.12977337 56.2440142 52.60431939 50.69076157 52.609375 45.5078125 C52.62591125 44.20673553 52.64244751 42.90565857 52.65948486 41.56515503 C52.70301748 38.12271213 52.72312561 34.68052338 52.73822021 31.237854 C52.75784269 27.71831319 52.79980665 24.19904481 52.83984375 20.6796875 C52.9149927 13.78653436 52.96330908 6.89346409 53 0 C58.61 0 64.22 0 70 0 C70.06804704 7.53716913 70.12297155 15.07422214 70.15543652 22.61162472 C70.17102599 26.11237531 70.19213941 29.61290302 70.22631836 33.11352539 C70.26545205 37.14731871 70.27976462 41.18088156 70.29296875 45.21484375 C70.30845261 46.45894516 70.32393646 47.70304657 70.33988953 48.98484802 C70.34204065 60.19213631 68.2523712 68.0181328 60.75 76.5625 C51.5648061 84.70392187 42.87435518 86.52931572 30.75 86.30078125 C20.20918028 85.45531967 12.96391521 80.84575177 6 73 C-0.13810951 64.13384182 -0.28443375 54.15797131 -0.1953125 43.75 C-0.1924826 42.49614502 -0.18965271 41.24229004 -0.18673706 39.95043945 C-0.17748144 36.6427535 -0.15956217 33.33526818 -0.1373291 30.02764893 C-0.11674364 26.64215531 -0.10770839 23.25663213 -0.09765625 19.87109375 C-0.07566871 13.24730822 -0.04117636 6.62369291 0 0 Z " fill="#011229" transform="translate(400,591)"/>
<path d="M0 0 C17.82 0 35.64 0 54 0 C54 5.28 54 10.56 54 16 C41.79 16 29.58 16 17 16 C17 22.27 17 28.54 17 35 C28.22 35 39.44 35 51 35 C51 39.95 51 44.9 51 50 C39.78 50 28.56 50 17 50 C17 56.27 17 62.54 17 69 C29.54 69 42.08 69 55 69 C55 73.95 55 78.9 55 84 C36.85 84 18.7 84 0 84 C0 56.28 0 28.56 0 0 Z " fill="#02142B" transform="translate(981,591)"/>
<path d="M0 0 C17.49 0 34.98 0 53 0 C53 5.28 53 10.56 53 16 C40.79 16 28.58 16 16 16 C16 22.27 16 28.54 16 35 C27.22 35 38.44 35 50 35 C50 39.95 50 44.9 50 50 C38.78 50 27.56 50 16 50 C16 56.27 16 62.54 16 69 C28.54 69 41.08 69 54 69 C54 73.95 54 78.9 54 84 C36.18 84 18.36 84 0 84 C0 56.28 0 28.56 0 0 Z " fill="#01152C" transform="translate(840,591)"/>
<path d="M0 0 C6.71438665 4.0671046 11.92767565 8.25960107 16 15 C13.73595458 16.36680153 11.46498979 17.71844445 9.1875 19.0625 C8.54490234 19.45244141 7.90230469 19.84238281 7.24023438 20.24414062 C5.5371085 21.24130759 3.77054142 22.12812687 2 23 C-1 22 -1 22 -3.25 19.625 C-8.17284943 14.92591646 -12.29319858 13.81354413 -18.9375 13.5625 C-26.0225956 13.75734013 -30.29534691 15.8485714 -35.75 20.1875 C-42.56886659 28.71108324 -43.01727673 37.46694721 -42 48 C-40.56016616 54.92920037 -37.50475343 59.15312639 -32.09765625 63.625 C-26.29058363 67.43149825 -20.77066334 67.73372072 -14 67 C-7.02883353 65.18379906 -3.25504207 61.67338943 1 56 C5.95 58.31 10.9 60.62 16 63 C12.06475693 72.83810768 5.55339889 77.76024341 -4 82 C-14.17816067 85.73199225 -26.08027679 85.24420673 -36.1484375 81.390625 C-48.44148042 75.39566161 -54.93942923 67.32579404 -60.01953125 54.9296875 C-63.91641639 43.28560839 -62.67131646 31.19078617 -58 20 C-53.15018071 10.43303124 -45.00226698 2.90804242 -35 -1 C-34.12214844 -1.35707031 -33.24429687 -1.71414063 -32.33984375 -2.08203125 C-22.73862605 -4.72096243 -8.93135597 -4.61171565 0 0 Z " fill="#021329" transform="translate(1108,593)"/>
<path d="M0 0 C20.46 0 40.92 0 62 0 C62 11.97455639 61.67706815 15.39743691 55 24 C54.36755371 24.85803223 53.73510742 25.71606445 53.08349609 26.60009766 C51.15132868 29.19815605 49.17647018 31.75773118 47.1875 34.3125 C42.0481923 40.97640971 37.01579722 47.6826079 32.18457031 54.57275391 C30.06497187 57.57567157 27.86550079 60.42814851 25.4375 63.1875 C22.85097573 65.80981981 22.85097573 65.80981981 22 69 C35.53 69 49.06 69 63 69 C63 73.95 63 78.9 63 84 C41.88 84 20.76 84 -1 84 C-1 71.61290323 -1 71.61290323 1.875 67.625 C2.84373047 66.25214844 2.84373047 66.25214844 3.83203125 64.8515625 C4.54746094 63.91054688 5.26289062 62.96953125 6 62 C6.72574219 61.03835938 7.45148437 60.07671875 8.19921875 59.0859375 C9.83240768 56.95334369 11.47459624 54.83080024 13.12890625 52.71484375 C16.49598465 48.38744084 19.74928067 43.97763629 23 39.5625 C23.54470947 38.82451172 24.08941895 38.08652344 24.65063477 37.32617188 C29.84128497 30.26804666 34.90606382 23.13151065 40 16 C26.8 16 13.6 16 0 16 C0 10.72 0 5.44 0 0 Z " fill="#03152C" transform="translate(762,591)"/>
<path d="M0 0 C18.48 0 36.96 0 56 0 C56 5.28 56 10.56 56 16 C43.13 16 30.26 16 17 16 C17 22.27 17 28.54 17 35 C28.55 35 40.1 35 52 35 C52 39.95 52 44.9 52 50 C40.45 50 28.9 50 17 50 C17 61.55 17 73.1 17 85 C11.39 85 5.78 85 0 85 C0 56.95 0 28.9 0 0 Z " fill="#00142C" transform="translate(330,591)"/>
<path d="M0 0 C21.12 0 42.24 0 64 0 C64 5.28 64 10.56 64 16 C56.41 16 48.82 16 41 16 C41 38.44 41 60.88 41 84 C35.39 84 29.78 84 24 84 C24 61.56 24 39.12 24 16 C16.08 16 8.16 16 0 16 C0 10.72 0 5.44 0 0 Z " fill="#03152B" transform="translate(482,591)"/>
<path d="M0 0 C21.12 0 42.24 0 64 0 C64 5.28 64 10.56 64 16 C56.08 16 48.16 16 40 16 C40 38.44 40 60.88 40 84 C34.72 84 29.44 84 24 84 C24 61.56 24 39.12 24 16 C16.08 16 8.16 16 0 16 C0 10.72 0 5.44 0 0 Z " fill="#001229" transform="translate(905,591)"/>
<path d="M0 0 C5.38915702 2.77741365 7.92610043 6.33731801 10.875 11.625 C13.1734965 18.88341 12.87926002 25.41249057 9.46484375 32.265625 C5.93100436 37.58114944 1.13313651 41.41286711 -4.9375 43.375 C-12.2406756 44.32662591 -18.74678047 43.49411689 -24.9375 39.375 C-29.7225515 35.04175594 -32.57026543 30.61052981 -33.30859375 24.10546875 C-33.45113651 16.50039353 -33.23088047 11.09794799 -27.9375 5.375 C-20.33335977 -2.36848311 -10.07908377 -4.05189297 0 0 Z " fill="#041226" transform="translate(610.9375,722.625)"/>
<path d="M0 0 C5.61 0 11.22 0 17 0 C17 27.72 17 55.44 17 84 C11.39 84 5.78 84 0 84 C0 56.28 0 28.56 0 0 Z " fill="#00132A" transform="translate(729,591)"/>
<path d="M0 0 C2.97 0 5.94 0 9 0 C9.23710693 0.84296631 9.47421387 1.68593262 9.71850586 2.55444336 C10.59737947 5.67303407 11.47919507 8.79077307 12.36303711 11.90795898 C12.74541054 13.25886011 13.12659948 14.61009708 13.5065918 15.96166992 C14.05207915 17.9011015 14.60214164 19.83924444 15.15234375 21.77734375 C15.48226318 22.94515381 15.81218262 24.11296387 16.15209961 25.31616211 C16.73930302 27.89304993 16.73930302 27.89304993 18 29 C20.97 19.43 23.94 9.86 27 0 C29.31 0 31.62 0 34 0 C36.40634512 6.27870972 38.57841946 12.6159735 40.6875 19 C41.780625 22.3 42.87375 25.6 44 29 C46.64 19.43 49.28 9.86 52 0 C54.97 0 57.94 0 61 0 C59.39351461 9.28807067 56.65154793 18.13648158 53.875 27.125 C53.40190179 28.66913549 52.92924205 30.2134054 52.45703125 31.7578125 C51.30973512 35.50677661 50.15652652 39.25387362 49 43 C46.03 43 43.06 43 40 43 C38.68503767 39.08415567 37.37345777 35.16718663 36.0625 31.25 C35.50272461 29.58324219 35.50272461 29.58324219 34.93164062 27.8828125 C34.57392578 26.81289063 34.21621094 25.74296875 33.84765625 24.640625 C33.3527771 23.16384277 33.3527771 23.16384277 32.84790039 21.65722656 C32.14287228 19.447746 31.52685603 17.25728538 31 15 C30.7326001 15.81267334 30.4652002 16.62534668 30.18969727 17.46264648 C29.19876693 20.46946639 28.20516275 23.47538521 27.2097168 26.48071289 C26.77894911 27.78309049 26.34925775 29.08582458 25.9206543 30.38891602 C25.30538637 32.25890373 24.68595941 34.12752142 24.06640625 35.99609375 C23.69459229 37.12200928 23.32277832 38.2479248 22.93969727 39.40795898 C22 42 22 42 21 43 C19.48071962 43.07179964 17.95832518 43.08392007 16.4375 43.0625 C15.61121094 43.05347656 14.78492188 43.04445313 13.93359375 43.03515625 C13.29550781 43.02355469 12.65742187 43.01195312 12 43 C10.28758752 37.1985955 8.57867844 31.39617518 6.87304688 25.59277344 C6.29198502 23.61755311 5.70995687 21.64261678 5.12695312 19.66796875 C4.29044091 16.83407023 3.45737819 13.99917761 2.625 11.1640625 C2.36251465 10.27756012 2.1000293 9.39105774 1.82958984 8.47769165 C1.58934082 7.65699188 1.3490918 6.83629211 1.1015625 5.99072266 C0.88838379 5.26680328 0.67520508 4.54288391 0.45556641 3.79702759 C0 2 0 2 0 0 Z " fill="#051326" transform="translate(771,722)"/>
<path d="M0 0 C5.506875 -0.12375 5.506875 -0.12375 11.125 -0.25 C12.2711377 -0.28641602 13.41727539 -0.32283203 14.59814453 -0.36035156 C20.74416339 -0.42716783 24.349502 -0.14567421 29 4 C32.38631676 7.83782566 32.50949328 11.63371494 32.35546875 16.5625 C31.69261931 21.10775332 29.40736283 23.90852335 25.859375 26.66015625 C25.24578125 27.10230469 24.6321875 27.54445313 24 28 C24.6496875 28.91523437 25.299375 29.83046875 25.96875 30.7734375 C26.81274508 31.97378605 27.65648173 33.17431634 28.5 34.375 C28.92925781 34.97828125 29.35851562 35.5815625 29.80078125 36.203125 C33 40.7734375 33 40.7734375 33 43 C29.712673 43.90926066 27.26296354 44.07295648 24 43 C20.60341324 39.31271437 15 33.21610294 15 28 C12.69 28 10.38 28 8 28 C8 32.95 8 37.9 8 43 C5.36 43 2.72 43 0 43 C0 28.81 0 14.62 0 0 Z " fill="#04172E" transform="translate(926,722)"/>
<path d="M0 0 C3.3 0 6.6 0 10 0 C12.10201818 5.1585281 14.20155055 10.31805834 16.29882812 15.47851562 C17.01201961 17.23237127 17.72587879 18.98595557 18.44042969 20.73925781 C19.46987533 23.26555757 20.49688252 25.79283698 21.5234375 28.3203125 C21.84122162 29.09867462 22.15900574 29.87703674 22.48641968 30.6789856 C24.13588174 34.74721594 25.66672915 38.81387886 27 43 C24.03 43 21.06 43 18 43 C15 37.25 15 37.25 15 35 C5.1 35.495 5.1 35.495 -5 36 C-5.99 38.31 -6.98 40.62 -8 43 C-10.97 43 -13.94 43 -17 43 C-11.73896662 28.50441015 -5.86231934 14.25986488 0 0 Z " fill="#061428" transform="translate(871,722)"/>
<path d="M0 0 C9.24 0 18.48 0 28 0 C28 2.31 28 4.62 28 7 C21.4 7 14.8 7 8 7 C8 10.3 8 13.6 8 17 C13.94 17 19.88 17 26 17 C26 19.64 26 22.28 26 25 C19.73 25 13.46 25 7 25 C7 28.63 7 32.26 7 36 C13.93 36 20.86 36 28 36 C28 38.31 28 40.62 28 43 C18.76 43 9.52 43 0 43 C0 28.81 0 14.62 0 0 Z " fill="#071930" transform="translate(989,722)"/>
<path d="M0 0 C0.33 0 0.66 0 1 0 C1 7.92 1 15.84 1 24 C72.94 24 144.88 24 219 24 C218.2661578 33.53994857 217.47512748 40.43587227 214 49 C213.47599609 50.29744141 213.47599609 50.29744141 212.94140625 51.62109375 C207.24860082 64.24769681 196.08251464 74.52044606 183.3274374 79.79205704 C171.05296726 84.24799656 159.15135481 85.58549434 146.19897461 85.45410156 C144.60042856 85.45296926 143.00188043 85.45361437 141.40333557 85.45587158 C137.12329789 85.45700477 132.84372182 85.43372573 128.56379008 85.40557575 C124.06888303 85.38032548 119.57396179 85.3782017 115.07899475 85.37347412 C106.59379466 85.36111298 98.10880426 85.32838576 89.62369591 85.28807616 C79.95241507 85.24314296 70.28112346 85.22131759 60.60976398 85.20129442 C40.73972627 85.15964586 20.86987642 85.08942944 1 85 C1 84.67 1 84.34 1 84 C38.29 83.67 75.58 83.34 114 83 C114 82.67 114 82.34 114 82 C114.5902446 82.00222061 115.1804892 82.00444122 115.78862 82.00672913 C121.93679193 82.02886785 128.08495253 82.0439425 134.2331543 82.05493164 C136.52710429 82.05995761 138.82105108 82.06677938 141.11499023 82.07543945 C144.41390778 82.08758096 147.71278293 82.09324572 151.01171875 82.09765625 C152.54792122 82.10539818 152.54792122 82.10539818 154.11515808 82.11329651 C155.07577652 82.11337204 156.03639496 82.11344757 157.02612305 82.11352539 C157.86773483 82.115746 158.70934662 82.11796661 159.57646179 82.12025452 C162.14234562 81.9929369 164.49456043 81.55685107 167 81 C168.11375 80.78601563 169.2275 80.57203125 170.375 80.3515625 C171.57125 80.11179687 172.7675 79.87203125 174 79.625 C175.19625 79.39039063 176.3925 79.15578125 177.625 78.9140625 C180.90794375 78.0249319 183.13837964 76.77857654 186 75 C186.99 75 187.98 75 189 75 C189.33 74.34 189.66 73.68 190 73 C190.825 72.690625 191.65 72.38125 192.5 72.0625 C193.325 71.711875 194.15 71.36125 195 71 C195.33 70.01 195.66 69.02 196 68 C196.7425 67.5875 197.485 67.175 198.25 66.75 C201.44864842 64.71449646 202.88179928 62.58010081 204.88671875 59.42578125 C205.25410156 58.95527344 205.62148438 58.48476563 206 58 C206.66 58 207.32 58 208 58 C208.37125 56.8553125 208.37125 56.8553125 208.75 55.6875 C209.78815363 52.6249468 210.88033364 49.59562604 212 46.5625 C214.49823878 39.67369977 216 34.46549381 216 27 C195.87 27 175.74 27 155 27 C155 26.34 155 25.68 155 25 C103.85 25 52.7 25 0 25 C0 16.75 0 8.5 0 0 Z " fill="#3678A1" transform="translate(677,324)"/>
<path d="M0 0 C1.9061167 0.94462421 3.75189456 2.00922455 5.58203125 3.09375 C5.58203125 4.41375 5.58203125 5.73375 5.58203125 7.09375 C3.58203125 8.84375 3.58203125 8.84375 1.58203125 10.09375 C0.73640625 9.59875 -0.10921875 9.10375 -0.98046875 8.59375 C-4.81286479 6.92143173 -7.28037056 6.70341055 -11.41796875 7.09375 C-12.40796875 7.75375 -13.39796875 8.41375 -14.41796875 9.09375 C-14.53168158 11.52134461 -14.53168158 11.52134461 -13.41796875 14.09375 C-10.77836256 15.34726162 -8.43656499 16.25537227 -5.66796875 17.09375 C-0.00693067 18.84500639 3.63682176 20.39563793 7.58203125 25.09375 C9.20248449 28.33465647 9.14304428 31.59068024 8.58203125 35.09375 C5.73406329 39.81069693 2.92981973 41.98042008 -2.31640625 43.62109375 C-9.5716036 45.25283888 -15.11780408 43.88409297 -21.41796875 40.09375 C-23.48046875 37.84375 -23.48046875 37.84375 -24.41796875 36.09375 C-22.43796875 34.44375 -20.45796875 32.79375 -18.41796875 31.09375 C-17.63421875 31.75375 -16.85046875 32.41375 -16.04296875 33.09375 C-11.88655478 35.89783789 -7.2656471 35.84357075 -2.41796875 35.09375 C-0.1449205 33.27754088 -0.1449205 33.27754088 -0.34375 30.65625 C-1.23533932 27.75784455 -1.23533932 27.75784455 -4.5859375 26.46875 C-5.91875553 25.99037065 -7.25916175 25.53273541 -8.60546875 25.09375 C-14.18620723 23.22079972 -18.18981706 21.2835221 -22.41796875 17.09375 C-23.67312933 14.40189735 -23.75294033 12.03341436 -23.41796875 9.09375 C-21.40470678 4.7316824 -18.78972472 1.99118666 -14.46875 -0.2109375 C-9.640582 -1.84791636 -4.76677557 -1.78657824 0 0 Z " fill="#051327" transform="translate(541.41796875,721.90625)"/>
<path d="M0 0 C4.18757275 3.70899301 5.96187397 8.0680272 6.625 13.5625 C5.95970469 18.69477809 4.47544613 21.77520715 0.625 25.25 C-4.09846546 28.52009147 -8.16351864 28.55359474 -13.8125 27.9375 C-17.5417443 26.17458451 -19.30445941 24.64875683 -21.6875 21.3125 C-23.20840225 16.74979326 -23.51709836 12.69934604 -22.8125 7.9375 C-17.78668198 -1.93464253 -9.93774833 -3.75426048 0 0 Z " fill="#FAFBFB" transform="translate(608.8125,730.0625)"/>
<path d="M0 0 C4.06360975 -0.13495383 8.12273973 -0.23411619 12.1875 -0.3125 C13.91323242 -0.3753418 13.91323242 -0.3753418 15.67382812 -0.43945312 C24.21782508 -0.56327917 24.21782508 -0.56327917 28.23828125 2.33203125 C31.07281848 6.62468963 31.35017218 9.92250339 31 15 C29.3143679 18.70839062 27.45706573 20.87677167 24 23 C21.34277344 23.34057617 21.34277344 23.34057617 18.359375 23.29296875 C16.75449219 23.2784668 16.75449219 23.2784668 15.1171875 23.26367188 C14.00601563 23.23853516 12.89484375 23.21339844 11.75 23.1875 C10.06003906 23.16719727 10.06003906 23.16719727 8.3359375 23.14648438 C5.55708719 23.11116001 2.77848293 23.05735401 0 23 C0 15.41 0 7.82 0 0 Z " fill="#F6F7F8" transform="translate(664,607)"/>
<path d="M0 0 C9.9 0 19.8 0 30 0 C30 2.31 30 4.62 30 7 C23.07 7 16.14 7 9 7 C9 10.96 9 14.92 9 19 C15.27 19 21.54 19 28 19 C28 21.31 28 23.62 28 26 C21.4 26 14.8 26 8 26 C8 31.61 8 37.22 8 43 C5.36 43 2.72 43 0 43 C0 28.81 0 14.62 0 0 Z " fill="#000F22" transform="translate(653,722)"/>
<path d="M0 0 C10.89 0 21.78 0 33 0 C33 2.31 33 4.62 33 7 C29.04 7 25.08 7 21 7 C21 18.88 21 30.76 21 43 C18.36 43 15.72 43 13 43 C13 31.12 13 19.24 13 7 C8.71 7 4.42 7 0 7 C0 4.69 0 2.38 0 0 Z " fill="#02142C" transform="translate(710,722)"/>
<path d="M0 0 C6.93 0 13.86 0 21 0 C21 0.33 21 0.66 21 1 C14.4 1 7.8 1 1 1 C1 14.53 1 28.06 1 42 C2.65 42 4.3 42 6 42 C5.96519531 41.04738281 5.93039062 40.09476563 5.89453125 39.11328125 C5.86746094 37.85902344 5.84039063 36.60476563 5.8125 35.3125 C5.77769531 34.07113281 5.74289062 32.82976563 5.70703125 31.55078125 C6.0153171 27.81435679 6.81911727 25.99370517 9 23 C8.34 22.34 7.68 21.68 7 21 C7.90363281 20.95101562 8.80726563 20.90203125 9.73828125 20.8515625 C10.91777344 20.77679687 12.09726562 20.70203125 13.3125 20.625 C14.48425781 20.55539062 15.65601563 20.48578125 16.86328125 20.4140625 C20.15699887 20.21386253 20.15699887 20.21386253 23 18 C23.2982655 13.45145106 23.10962199 9.43848796 22 5 C25 5 25 5 28 6 C27.34 5.01 26.68 4.02 26 3 C28.37831732 3.95132693 29.7315202 4.57081046 31.109375 6.7734375 C32.70788429 10.76971073 32.5473081 14.77504842 32 19 C29.90702755 23.11119588 27.68141909 25.34721271 24 28 C24.6496875 28.91523437 25.299375 29.83046875 25.96875 30.7734375 C26.81274508 31.97378605 27.65648173 33.17431634 28.5 34.375 C28.92925781 34.97828125 29.35851562 35.5815625 29.80078125 36.203125 C33 40.7734375 33 40.7734375 33 43 C29.712673 43.90926066 27.26296354 44.07295648 24 43 C20.60341324 39.31271437 15 33.21610294 15 28 C12.69 28 10.38 28 8 28 C8 32.95 8 37.9 8 43 C5.36 43 2.72 43 0 43 C0 28.81 0 14.62 0 0 Z " fill="#051121" transform="translate(926,722)"/>
<path d="M0 0 C18.48 0 36.96 0 56 0 C56 5.28 56 10.56 56 16 C43.13 16 30.26 16 17 16 C17 22.27 17 28.54 17 35 C28.22 35 39.44 35 51 35 C51 36.65 51 38.3 51 40 C50.505 38.02 50.505 38.02 50 36 C48.46291382 36.00785522 48.46291382 36.00785522 46.89477539 36.01586914 C43.10604724 36.03391969 39.31732291 36.0454322 35.52856445 36.05493164 C33.88630536 36.05997174 32.24405077 36.06680378 30.60180664 36.07543945 C28.24624521 36.08751926 25.89074291 36.09323139 23.53515625 36.09765625 C22.79660904 36.10281754 22.05806183 36.10797882 21.2971344 36.11329651 C19.53101912 36.1134925 17.76502854 36.06194719 16 36 C14.41062444 34.41062444 14.87018857 32.76100154 14.8671875 30.5625 C14.86525391 29.22058594 14.86525391 29.22058594 14.86328125 27.8515625 C14.86714844 26.91054688 14.87101562 25.96953125 14.875 25 C14.87113281 24.05898438 14.86726563 23.11796875 14.86328125 22.1484375 C14.86457031 21.25382813 14.86585938 20.35921875 14.8671875 19.4375 C14.86831543 18.61121094 14.86944336 17.78492188 14.87060547 16.93359375 C15 15 15 15 16 14 C18.8116338 13.91138008 21.59858255 13.88477645 24.41015625 13.90234375 C25.25219101 13.9037587 26.09422577 13.90517365 26.96177673 13.90663147 C29.66205335 13.91224737 32.36224828 13.92480252 35.0625 13.9375 C36.88867068 13.94251295 38.71484266 13.94707621 40.54101562 13.95117188 C45.02737542 13.96222196 49.51367384 13.97949721 54 14 C54 10.04 54 6.08 54 2 C36.84 2 19.68 2 2 2 C2 28.73 2 55.46 2 83 C6.95 83 11.9 83 17 83 C17 83.66 17 84.32 17 85 C11.39 85 5.78 85 0 85 C0 56.95 0 28.9 0 0 Z " fill="#18212E" transform="translate(330,591)"/>
<path d="M0 0 C5.61 0 11.22 0 17 0 C17 11.22 17 22.44 17 34 C28.88 34 40.76 34 53 34 C53 22.78 53 11.56 53 0 C58.61 0 64.22 0 70 0 C70 28.05 70 56.1 70 85 C64.39 85 58.78 85 53 85 C53 73.12 53 61.24 53 49 C53.33 49 53.66 49 54 49 C54 60.22 54 71.44 54 83 C58.62 83 63.24 83 68 83 C68 56.27 68 29.54 68 2 C63.38 2 58.76 2 54 2 C54.00523682 2.99443115 54.01047363 3.9888623 54.01586914 5.01342773 C54.03392041 8.69033921 54.04543246 12.36724675 54.05493164 16.04418945 C54.05997157 17.63794614 54.0668035 19.23169819 54.07543945 20.82543945 C54.08751999 23.11150253 54.09323155 25.39750467 54.09765625 27.68359375 C54.10281754 28.40026718 54.10797882 29.11694061 54.11329651 29.85533142 C54.11349263 31.57063672 54.06192007 33.28581266 54 35 C51.98025267 37.01974733 47.86915483 36.16399439 45.09765625 36.16796875 C43.90830727 36.17296135 43.90830727 36.17296135 42.69493103 36.17805481 C41.01448142 36.18312726 39.33402171 36.18546304 37.65356445 36.18530273 C35.07681741 36.18748786 32.50049924 36.20563609 29.92382812 36.22460938 C28.2942723 36.22754345 26.66471444 36.22952815 25.03515625 36.23046875 C23.87416161 36.24124702 23.87416161 36.24124702 22.68971252 36.25224304 C17.22882253 36.22882253 17.22882253 36.22882253 15 34 C14.89554636 31.48519368 14.91000295 29.09274532 15.0234375 26.5859375 C15.04846344 25.85629791 15.07348938 25.12665833 15.09927368 24.37490845 C15.18154215 22.04113768 15.27810293 19.70820478 15.375 17.375 C15.43323272 15.79430522 15.49053615 14.21357591 15.546875 12.6328125 C15.6853845 8.75454662 15.84319512 4.87774239 16 1 C10.72 1 5.44 1 0 1 C0 0.67 0 0.34 0 0 Z " fill="#272E37" transform="translate(1137,591)"/>
<path d="M0 0 C0.66 0 1.32 0 2 0 C2 26.73 2 53.46 2 81 C18.83 81 35.66 81 53 81 C53 77.04 53 73.08 53 69 C51.88439697 69.00523682 50.76879395 69.01047363 49.61938477 69.01586914 C45.49520667 69.03391775 41.37103209 69.04543149 37.24682617 69.05493164 C35.45905979 69.05997218 33.67129755 69.06680454 31.88354492 69.07543945 C29.31948832 69.0875173 26.75548603 69.09323094 24.19140625 69.09765625 C22.98515343 69.10539818 22.98515343 69.10539818 21.75453186 69.11329651 C19.83598285 69.11349215 17.91754632 69.06201983 16 69 C15 68 15 68 14.88647461 66.05053711 C14.89171143 65.2178833 14.89694824 64.38522949 14.90234375 63.52734375 C14.90556641 62.62822266 14.90878906 61.72910156 14.91210938 60.80273438 C14.92048828 59.85720703 14.92886719 58.91167969 14.9375 57.9375 C14.94426758 56.5134082 14.94426758 56.5134082 14.95117188 55.06054688 C14.9629989 52.70696935 14.97947975 50.35351523 15 48 C15.33 48 15.66 48 16 48 C16 54.27 16 60.54 16 67 C28.87 67 41.74 67 55 67 C55 71.95 55 76.9 55 82 C36.85 82 18.7 82 0 82 C0 54.94 0 27.88 0 0 Z " fill="#000514" transform="translate(981,593)"/>
<path d="M0 0 C5.61 0 11.22 0 17 0 C17 17.49 17 34.98 17 53 C16.67 53 16.34 53 16 53 C15.67 36.83 15.34 20.66 15 4 C11.04 3.67 7.08 3.34 3 3 C3 21.15 3 39.3 3 58 C2.01 58 1.02 58 0 58 C0 38.86 0 19.72 0 0 Z " fill="#091B30" transform="translate(559,591)"/>
<path d="M0 0 C21.12 0 42.24 0 64 0 C64 5.28 64 10.56 64 16 C56.08 16 48.16 16 40 16 C40 15.34 40 14.68 40 14 C47.26 14 54.52 14 62 14 C62 10.04 62 6.08 62 2 C41.87 2 21.74 2 1 2 C1 5.96 1 9.92 1 14 C8.26 14 15.52 14 23 14 C23 14.33 23 14.66 23 15 C15.41 15.33 7.82 15.66 0 16 C0 10.72 0 5.44 0 0 Z " fill="#1A222F" transform="translate(905,591)"/>
<path d="M0 0 C0.33 0 0.66 0 1 0 C1 26.4 1 52.8 1 80 C17.83 80 34.66 80 52 80 C52 76.04 52 72.08 52 68 C40.12 68 28.24 68 16 68 C18 66 18 66 21.53173828 65.77294922 C23.04463331 65.77326637 24.55755088 65.78459367 26.0703125 65.8046875 C26.86654022 65.8075174 27.66276794 65.81034729 28.48312378 65.81326294 C31.03056763 65.8244736 33.57766211 65.84957938 36.125 65.875 C37.85025535 65.88502867 39.57551619 65.89415472 41.30078125 65.90234375 C45.53398914 65.92441578 49.7669353 65.95895133 54 66 C54 70.95 54 75.9 54 81 C36.18 81 18.36 81 0 81 C0 54.27 0 27.54 0 0 Z " fill="#000000" transform="translate(840,594)"/>
<path d="M0 0 C9.9 0 19.8 0 30 0 C30 2.31 30 4.62 30 7 C22.74 7 15.48 7 8 7 C8.66 5.68 9.32 4.36 10 3 C7.69 2.67 5.38 2.34 3 2 C3.01571045 3.17095215 3.0314209 4.3419043 3.04760742 5.54833984 C3.10181196 9.88306834 3.13631537 14.21776676 3.16479492 18.55273438 C3.17990325 20.43071526 3.20039094 22.30866076 3.22631836 24.18652344 C3.26261246 26.88225019 3.27970545 29.57751146 3.29296875 32.2734375 C3.30845261 33.11619232 3.32393646 33.95894714 3.33988953 34.82723999 C3.34057617 37.19287109 3.34057617 37.19287109 3 41 C2.01 41.66 1.02 42.32 0 43 C0 28.81 0 14.62 0 0 Z " fill="#162537" transform="translate(653,722)"/>
<path d="M0 0 C21.12 0 42.24 0 64 0 C64 5.28 64 10.56 64 16 C56.08 15.67 48.16 15.34 40 15 C40 14.67 40 14.34 40 14 C47.59 14 55.18 14 63 14 C63 10.04 63 6.08 63 2 C42.87 2 22.74 2 2 2 C2 5.96 2 9.92 2 14 C9.26 14 16.52 14 24 14 C24 14.33 24 14.66 24 15 C16.08 15.33 8.16 15.66 0 16 C0 10.72 0 5.44 0 0 Z " fill="#19222D" transform="translate(482,591)"/>
<path d="M0 0 C5.61 0 11.22 0 17 0 C17 27.72 17 55.44 17 84 C11.39 84 5.78 84 0 84 C0 83.67 0 83.34 0 83 C4.95 83 9.9 83 15 83 C15 56.27 15 29.54 15 2 C10.05 2 5.1 2 0 2 C0 1.34 0 0.68 0 0 Z " fill="#111927" transform="translate(729,591)"/>
<path d="M0 0 C1.8975 -0.061875 3.795 -0.12375 5.75 -0.1875 C7.35101562 -0.23970703 7.35101562 -0.23970703 8.984375 -0.29296875 C12.35541238 0.03452841 13.68796703 0.55034602 16 3 C16.53125 4.9375 16.53125 4.9375 16.5 7 C16.5103125 7.680625 16.520625 8.36125 16.53125 9.0625 C16 11 16 11 14.359375 12.73828125 C11.32045844 14.36339723 9.17612843 14.29922158 5.75 14.1875 C2.90375 14.0946875 2.90375 14.0946875 0 14 C0 9.38 0 4.76 0 0 Z " fill="#FAFBFB" transform="translate(934,729)"/>
<path d="M0 0 C0.33 0.66 0.66 1.32 1 2 C0.67 2.99 0.34 3.98 0 5 C13.53 5 27.06 5 41 5 C41 9.95 41 14.9 41 20 C19.88 20 -1.24 20 -23 20 C-23 16.37 -23 12.74 -23 9 C-22.34 9 -21.68 9 -21 9 C-21 12.3 -21 15.6 -21 19 C-1.2 19 18.6 19 39 19 C39 15.04 39 11.08 39 7 C26.13 7 13.26 7 0 7 C-0.66 5.68 -1.32 4.36 -2 3 C-1.34 2.01 -0.68 1.02 0 0 Z " fill="#060A15" transform="translate(784,655)"/>
<path d="M0 0 C9.24 0 18.48 0 28 0 C28 2.31 28 4.62 28 7 C21.07 7 14.14 7 7 7 C7 10.63 7 14.26 7 18 C6.67 18 6.34 18 6 18 C6 14.04 6 10.08 6 6 C8.296537 4.8517315 9.58313167 4.88438825 12.1328125 4.90234375 C12.93847656 4.90556641 13.74414062 4.90878906 14.57421875 4.91210938 C15.41597656 4.92048828 16.25773438 4.92886719 17.125 4.9375 C18.39923828 4.94426758 18.39923828 4.94426758 19.69921875 4.95117188 C21.79950909 4.96297126 23.8997633 4.98090694 26 5 C26 3.68 26 2.36 26 1 C17.75 1 9.5 1 1 1 C1 14.53 1 28.06 1 42 C9.25 42 17.5 42 26 42 C26 40.35 26 38.7 26 37 C19.73 37 13.46 37 7 37 C7 36.67 7 36.34 7 36 C13.93 36 20.86 36 28 36 C28 38.31 28 40.62 28 43 C18.76 43 9.52 43 0 43 C0 28.81 0 14.62 0 0 Z " fill="#000002" transform="translate(989,722)"/>
<path d="M0 0 C5.61 0 11.22 0 17 0 C17 8.25 17 16.5 17 25 C16.67 25 16.34 25 16 25 C14.76597138 20.22907044 14.88734888 15.57530554 14.9375 10.6875 C14.94201172 9.85154297 14.94652344 9.01558594 14.95117188 8.15429688 C14.96289452 6.10283351 14.98082797 4.05140727 15 2 C10.71 2 6.42 2 2 2 C2 21.14 2 40.28 2 60 C-0.27121709 56.59317436 -0.24468887 55.42202816 -0.22705078 51.42700195 C-0.22689972 50.28604568 -0.22674866 49.14508942 -0.22659302 47.96955872 C-0.21627045 46.73823715 -0.20594788 45.50691559 -0.1953125 44.23828125 C-0.1924826 42.97735153 -0.18965271 41.71642181 -0.18673706 40.4172821 C-0.17743125 37.06839578 -0.15946703 33.71978209 -0.1373291 30.37097168 C-0.11685386 26.95241653 -0.10773176 23.5338332 -0.09765625 20.11523438 C-0.07558177 13.41007108 -0.04104438 6.70507293 0 0 Z " fill="#15202D" transform="translate(400,591)"/>
<path d="M0 0 C5.61 0 11.22 0 17 0 C16.67 0.99 16.34 1.98 16 3 C11.71 3 7.42 3 3 3 C3 20.82 3 38.64 3 57 C2.01 56.67 1.02 56.34 0 56 C0 37.52 0 19.04 0 0 Z " fill="#334458" transform="translate(453,591)"/>
<path d="M0 0 C5.61 0 11.22 0 17 0 C17 0.99 17 1.98 17 3 C12.38 3 7.76 3 3 3 C3 20.49 3 37.98 3 56 C2.01 55.67 1.02 55.34 0 55 C0 36.85 0 18.7 0 0 Z " fill="#2B3C4F" transform="translate(613,591)"/>
<path d="M0 0 C11.22 0 22.44 0 34 0 C34 4.95 34 9.9 34 15 C22.78 15 11.56 15 0 15 C0 21.27 0 27.54 0 34 C-0.33 34 -0.66 34 -1 34 C-1.02888146 30.68751813 -1.04675799 27.37506833 -1.0625 24.0625 C-1.07087891 23.11697266 -1.07925781 22.17144531 -1.08789062 21.19726562 C-1.09111328 20.29814453 -1.09433594 19.39902344 -1.09765625 18.47265625 C-1.10289307 17.64000244 -1.10812988 16.80734863 -1.11352539 15.94946289 C-1 14 -1 14 0 13 C2.3756852 12.9116033 4.72208674 12.88469695 7.09765625 12.90234375 C8.16094398 12.90446617 8.16094398 12.90446617 9.24571228 12.90663147 C11.51801712 12.91224557 13.79022475 12.92480037 16.0625 12.9375 C17.59960796 12.94251319 19.13671745 12.94707641 20.67382812 12.95117188 C24.44925642 12.96221958 28.22461171 12.97949359 32 13 C32 9.04 32 5.08 32 1 C21.44 1 10.88 1 0 1 C0 0.67 0 0.34 0 0 Z " fill="#010511" transform="translate(856,626)"/>
<path d="M0 0 C3.27580028 1.63790014 3.86530313 5.17373993 5.125 8.4375 C5.40214844 9.13166016 5.67929687 9.82582031 5.96484375 10.54101562 C8 15.71913485 8 15.71913485 8 18 C3.38 18 -1.24 18 -6 18 C-4.2177429 11.88940424 -2.30678315 5.9317281 0 0 Z " fill="#F1F2F3" transform="translate(875,731)"/>
<path d="M0 0 C5.53986406 0.49181373 8.78258756 1.55234524 13.14453125 5.01953125 C11.77469622 8.18068901 11.15546745 9.01224045 8.14453125 11.01953125 C7.29890625 10.52453125 6.45328125 10.02953125 5.58203125 9.51953125 C1.74963521 7.84721298 -0.71787056 7.6291918 -4.85546875 8.01953125 C-7.86640495 10.02682205 -8.48563372 10.85837349 -9.85546875 14.01953125 C-10.16796875 11.76953125 -10.16796875 11.76953125 -9.85546875 9.01953125 C-7.48046875 6.95703125 -7.48046875 6.95703125 -4.85546875 5.01953125 C-3.60382205 2.9361849 -3.60382205 2.9361849 -2.85546875 1.01953125 C-1.85546875 0.01953125 -1.85546875 0.01953125 0 0 Z " fill="#020E20" transform="translate(534.85546875,720.98046875)"/>
<path d="M0 0 C10.89 0 21.78 0 33 0 C33 2.31 33 4.62 33 7 C29.37 7 25.74 7 22 7 C22 6.67 22 6.34 22 6 C25.3 6 28.6 6 32 6 C32 4.35 32 2.7 32 1 C22.1 1 12.2 1 2 1 C2 2.32 2 3.64 2 5 C5.96 5 9.92 5 14 5 C14 17.21 14 29.42 14 42 C16.31 42 18.62 42 21 42 C21 42.33 21 42.66 21 43 C18.36 43 15.72 43 13 43 C13 31.12 13 19.24 13 7 C8.71 7 4.42 7 0 7 C0 4.69 0 2.38 0 0 Z " fill="#000003" transform="translate(710,722)"/>
<path d="M0 0 C1.51289503 0.00031716 3.0258126 0.01164445 4.53857422 0.03173828 C5.33480194 0.03456818 6.13102966 0.03739807 6.9513855 0.04031372 C9.49882935 0.05152438 12.04592383 0.07663016 14.59326172 0.10205078 C16.31851706 0.11207945 18.04377791 0.1212055 19.76904297 0.12939453 C24.00225086 0.15146656 28.23519702 0.18600212 32.46826172 0.22705078 C32.46826172 4.84705078 32.46826172 9.46705078 32.46826172 14.22705078 C31.80826172 14.22705078 31.14826172 14.22705078 30.46826172 14.22705078 C30.46826172 10.26705078 30.46826172 6.30705078 30.46826172 2.22705078 C18.58826172 2.22705078 6.70826172 2.22705078 -5.53173828 2.22705078 C-3.53173828 0.22705078 -3.53173828 0.22705078 0 0 Z " fill="#000617" transform="translate(861.53173828125,659.77294921875)"/>
<path d="M0 0 C0.33 0 0.66 0 1 0 C1 4.95 1 9.9 1 15 C-10.55 15 -22.1 15 -34 15 C-34 14.34 -34 13.68 -34 13 C-23.11 13 -12.22 13 -1 13 C-1 10.36 -1 7.72 -1 5 C-0.5 2 -0.5 2 0 0 Z " fill="#1E2936" transform="translate(381,626)"/>
<path d="M0 0 C0.66 0 1.32 0 2 0 C2 1.98 2 3.96 2 6 C-4.93 6 -11.86 6 -19 6 C-19 9.63 -19 13.26 -19 17 C-19.33 17 -19.66 17 -20 17 C-20 13.04 -20 9.08 -20 5 C-17.703463 3.8517315 -16.41686833 3.88438825 -13.8671875 3.90234375 C-13.06152344 3.90556641 -12.25585938 3.90878906 -11.42578125 3.91210938 C-10.58402344 3.92048828 -9.74226562 3.92886719 -8.875 3.9375 C-8.02550781 3.94201172 -7.17601562 3.94652344 -6.30078125 3.95117188 C-4.20049091 3.96297126 -2.1002367 3.98090694 0 4 C0 2.68 0 1.36 0 0 Z " fill="#000512" transform="translate(1015,723)"/>
<path d="M0 0 C2.93360834 1.36553261 5.38636204 2.95215897 7.9375 4.9375 C13.27739075 9.00175018 18.38462721 12.57466202 25.1875 13.375 C26.115625 13.58125 27.04375 13.7875 28 14 C29.17578125 16.0390625 29.17578125 16.0390625 30 18 C18.21072562 15.08464798 8.48060531 9.77376204 0 1 C0 0.67 0 0.34 0 0 Z " fill="#0F1420" transform="translate(640,506)"/>
<path d="M0 0 C0.66 0 1.32 0 2 0 C0.41085298 10.93428025 -3.81732022 21.46925129 -11 30 C-11.66 30 -12.32 30 -13 30 C-12.1875 27.5625 -12.1875 27.5625 -11 25 C-10.01 24.67 -9.02 24.34 -8 24 C-6.95103425 21.44776515 -6.95103425 21.44776515 -6 18 C-5.34199324 16.18433819 -4.67454827 14.37208153 -4 12.5625 C-2.47915727 8.40855643 -1.13948154 4.27305577 0 0 Z " fill="#1081C8" transform="translate(893,358)"/>
<path d="M0 0 C0.66 0 1.32 0 2 0 C1.49362019 2.02551922 0.98687821 4.04811323 0.4375 6.0625 C-0.11013044 8.15667366 -0.11013044 8.15667366 0 11 C-0.31136025 13.2323418 -0.64733619 15.46130967 -1 17.6875 C-1.185625 18.86699219 -1.37125 20.04648437 -1.5625 21.26171875 C-1.706875 22.16535156 -1.85125 23.06898438 -2 24 C-2.66 23.67 -3.32 23.34 -4 23 C-4.59972035 14.53727954 -3.07794799 7.87350088 0 0 Z " fill="#081120" transform="translate(621,294)"/>
<path d="M0 0 C0.66 0 1.32 0 2 0 C2 3.96 2 7.92 2 12 C5.96 12 9.92 12 14 12 C12 14 12 14 9.43359375 14.23046875 C8.44488281 14.21628906 7.45617187 14.20210937 6.4375 14.1875 C5.44621094 14.18105469 4.45492187 14.17460938 3.43359375 14.16796875 C1 14 1 14 0 13 C-0.07258946 10.81360547 -0.08373783 8.62499611 -0.0625 6.4375 C-0.05347656 5.23996094 -0.04445313 4.04242187 -0.03515625 2.80859375 C-0.02355469 1.88175781 -0.01195312 0.95492187 0 0 Z " fill="#1B212E" transform="translate(660,729)"/>
<path d="M0 0 C3.25548753 3.02295271 5.68977058 6.20462309 8 10 C8 10.66 8 11.32 8 12 C9.98 12 11.96 12 14 12 C13.34 10.35 12.68 8.7 12 7 C13.70884005 8.62339805 15.37446717 10.29319053 17 12 C17 12.66 17 13.32 17 14 C13.74496413 14.81375897 11.22689211 15.00436395 8 14 C4.69883911 10.38986347 0 5.11350555 0 0 Z " fill="#070B15" transform="translate(942,751)"/>
<path d="M0 0 C2.76544722 3.45680903 4.84921278 7.14341602 7 11 C7.66 11 8.32 11 9 11 C9.2475 12.0725 9.495 13.145 9.75 14.25 C10.99883146 17.99649437 12.02488658 19.52073882 15 22 C14.67 22.99 14.34 23.98 14 25 C0 7.24836601 0 7.24836601 0 0 Z " fill="#080C18" transform="translate(622,479)"/>
<path d="M0 0 C0.66 0 1.32 0 2 0 C2 4.29 2 8.58 2 13 C4.97 13 7.94 13 11 13 C11 13.33 11 13.66 11 14 C7.37 14.33 3.74 14.66 0 15 C0 10.05 0 5.1 0 0 Z " fill="#131C29" transform="translate(762,592)"/>
<path d="M0 0 C-2.7260373 2.7260373 -5.12924129 2.92453134 -8.875 3.75 C-10.10992188 4.03359375 -11.34484375 4.3171875 -12.6171875 4.609375 C-16.01757104 5.00202899 -17.24467066 4.9107309 -20 3 C-19.01 2.814375 -19.01 2.814375 -18 2.625 C-15.66570772 2.13868911 -13.42046666 1.56719027 -11.125 0.9375 C-7.3072317 -0.04234548 -3.92948054 -0.16372836 0 0 Z " fill="#0573B7" transform="translate(859,403)"/>
<path d="M0 0 C0.66 0 1.32 0 2 0 C2 1.32 2 2.64 2 4 C5.96 4 9.92 4 14 4 C14 4.66 14 5.32 14 6 C9.38 6 4.76 6 0 6 C0 4.02 0 2.04 0 0 Z " fill="#000514" transform="translate(710,723)"/>
<path d="M0 0 C0.66 0.33 1.32 0.66 2 1 C1.40832031 1.50789063 0.81664062 2.01578125 0.20703125 2.5390625 C-4.28065949 6.44840484 -8.35291267 10.29408087 -12 15 C-12.66 14.67 -13.32 14.34 -14 14 C-12.60919892 12.41224451 -11.21211596 10.82999061 -9.8125 9.25 C-8.64654297 7.92742187 -8.64654297 7.92742187 -7.45703125 6.578125 C-5.11544754 4.12113732 -2.69841735 2.05137234 0 0 Z " fill="#070B15" transform="translate(646,260)"/>
<path d="M0 0 C5.445 1.485 5.445 1.485 11 3 C9.68 3.99 8.36 4.98 7 6 C6.67 6.99 6.34 7.98 6 9 C4.35 9 2.7 9 1 9 C0.67 8.34 0.34 7.68 0 7 C0.99 7 1.98 7 3 7 C3 5.68 3 4.36 3 3 C2.01 2.01 1.02 1.02 0 0 Z " fill="#010817" transform="translate(525,756)"/>
<path d="M0 0 C-9.61538462 5 -9.61538462 5 -14 5 C-14 4.34 -14 3.68 -14 3 C-9.07015675 0.96006486 -5.42039575 -0.40652968 0 0 Z " fill="#080C18" transform="translate(676,248)"/>
<path d="M0 0 C2.31 0 4.62 0 7 0 C7 0.99 7 1.98 7 3 C4.69 3 2.38 3 0 3 C0 2.01 0 1.02 0 0 Z " fill="#00152E" transform="translate(1007,742)"/>
<path d="M0 0 C-0.33 0.66 -0.66 1.32 -1 2 C-3.97 1.67 -6.94 1.34 -10 1 C-5.64467851 -1.17766075 -4.53374042 -1.03039555 0 0 Z " fill="#091322" transform="translate(687,247)"/>
<path d="M0 0 C0.33 0 0.66 0 1 0 C1.2493357 1.60115576 1.47378648 3.20620159 1.6875 4.8125 C1.87892578 6.15248047 1.87892578 6.15248047 2.07421875 7.51953125 C2 10 2 10 0.51953125 11.82421875 C-0.23263672 12.40623047 -0.23263672 12.40623047 -1 13 C-2.40742022 10.18515955 -1.66652164 8.43063887 -1.0625 5.375 C-0.86785156 4.37210938 -0.67320312 3.36921875 -0.47265625 2.3359375 C-0.31667969 1.56507813 -0.16070313 0.79421875 0 0 Z " fill="#010610" transform="translate(615,739)"/>
<path d="M0 0 C2.83022097 3.99560608 1.76210446 7.42737323 1 12 C-1.83022097 8.00439392 -0.76210446 4.57262677 0 0 Z " fill="#091121" transform="translate(617,451)"/>
<path d="M0 0 C-0.33 0.99 -0.66 1.98 -1 3 C-1.99 3 -2.98 3 -4 3 C-4.33 3.99 -4.66 4.98 -5 6 C-5.66 5.67 -6.32 5.34 -7 5 C-6 2 -6 2 -4.0625 0.8125 C-2 0 -2 0 0 0 Z " fill="#060F1D" transform="translate(661,252)"/>
<path d="M0 0 C0.99 0 1.98 0 3 0 C2.34 1.65 1.68 3.3 1 5 C-0.32 4.67 -1.64 4.34 -3 4 C-1.6875 2 -1.6875 2 0 0 Z " fill="#0E192A" transform="translate(785,630)"/>
</svg>
