<svg width="1200" height="800" viewBox="0 0 1200 800" fill="none" xmlns="http://www.w3.org/2000/svg">
  <rect width="1200" height="800" rx="40" fill="#020617"/>
  <rect x="60" y="60" width="1080" height="680" rx="36" fill="#111827"/>
  <rect x="100" y="120" width="560" height="120" rx="24" fill="#1E293B"/>
  <rect x="100" y="260" width="520" height="380" rx="32" fill="#111827"/>
  <rect x="660" y="260" width="320" height="380" rx="32" fill="#111827"/>
  <rect x="720" y="340" width="200" height="22" rx="11" fill="#94A3B8"/>
  <rect x="720" y="380" width="240" height="18" rx="9" fill="#CBD5E1"/>
  <rect x="720" y="420" width="240" height="18" rx="9" fill="#94A3B8"/>
  <rect x="720" y="460" width="240" height="18" rx="9" fill="#94A3B8"/>
  <rect x="120" y="320" width="180" height="22" rx="11" fill="#E2E8F0"/>
  <rect x="120" y="360" width="220" height="18" rx="9" fill="#94A3B8"/>
  <rect x="120" y="400" width="240" height="18" rx="9" fill="#94A3B8"/>
  <rect x="120" y="440" width="220" height="18" rx="9" fill="#94A3B8"/>
  <rect x="100" y="680" width="360" height="40" rx="20" fill="#14B8A6"/>
  <rect x="520" y="680" width="300" height="40" rx="20" fill="#0F172A" stroke="#334155" stroke-width="2"/>
  <text x="100" y="210" fill="#F8FAFC" font-family="Inter, sans-serif" font-size="44" font-weight="700">Shopbix | Commerce product page</text>
  <circle cx="180" cy="520" r="46" fill="#38BDF8" opacity="0.12"/>
  <circle cx="1040" cy="520" r="52" fill="#A78BFA" opacity="0.14"/>
</svg>
