<svg width="1200" height="800" viewBox="0 0 1200 800" fill="none" xmlns="http://www.w3.org/2000/svg">
  <rect width="1200" height="800" rx="40" fill="#0B1120"/>
  <rect x="40" y="40" width="1120" height="180" rx="24" fill="#111827"/>
  <circle cx="1000" cy="130" r="24" fill="#14B8A6"/>
  <rect x="80" y="80" width="340" height="40" rx="12" fill="#1F2937"/>
  <rect x="450" y="80" width="520" height="40" rx="12" fill="#1F2937"/>
  <rect x="80" y="140" width="240" height="24" rx="12" fill="#334155"/>
  <rect x="340" y="140" width="220" height="24" rx="12" fill="#334155"/>
  <rect x="620" y="140" width="220" height="24" rx="12" fill="#334155"/>
  <rect x="40" y="260" width="1120" height="420" rx="32" fill="#111827"/>
  <rect x="80" y="300" width="280" height="320" rx="28" fill="#1F2937"/>
  <rect x="140" y="340" width="160" height="22" rx="11" fill="#CBD5E1"/>
  <rect x="140" y="380" width="180" height="18" rx="9" fill="#94A3B8"/>
  <rect x="140" y="420" width="200" height="18" rx="9" fill="#94A3B8"/>
  <rect x="420" y="300" width="280" height="320" rx="28" fill="#1F2937"/>
  <rect x="480" y="340" width="160" height="22" rx="11" fill="#CBD5E1"/>
  <rect x="480" y="380" width="180" height="18" rx="9" fill="#94A3B8"/>
  <rect x="480" y="420" width="200" height="18" rx="9" fill="#94A3B8"/>
  <rect x="760" y="300" width="280" height="320" rx="28" fill="#1F2937"/>
  <rect x="820" y="340" width="160" height="22" rx="11" fill="#CBD5E1"/>
  <rect x="820" y="380" width="180" height="18" rx="9" fill="#94A3B8"/>
  <rect x="820" y="420" width="200" height="18" rx="9" fill="#94A3B8"/>
  <text x="80" y="240" fill="#E2E8F0" font-family="Inter, sans-serif" font-size="48" font-weight="700">Shopbix | Modern marketplace UI</text>
  <rect x="80" y="640" width="220" height="36" rx="18" fill="#14B8A6"/>
  <rect x="320" y="640" width="200" height="36" rx="18" fill="#0F172A"/>
  <circle cx="1100" cy="360" r="52" fill="#2DD4BF" opacity="0.18"/>
  <circle cx="1080" cy="500" r="36" fill="#38BDF8" opacity="0.18"/>
</svg>
